<svg xmlns="http://www.w3.org/2000/svg" width="280.426" height="277.135" viewBox="0 0 280.426 277.135">
  <g id="Value" transform="translate(-27.48 -42.625)">
    <g id="freepik--background-complete--inject-12" transform="translate(27.48 42.906)">
      <rect id="Rectangle_148" data-name="Rectangle 148" width="45.603" height="35.177" transform="translate(254.804 171.247) rotate(180)" fill="#ebebeb"/>
      <rect id="Rectangle_149" data-name="Rectangle 149" width="5.497" height="6.21" transform="translate(217.954 168.174) rotate(180)" fill="#fff"/>
      <rect id="Rectangle_150" data-name="Rectangle 150" width="5.181" height="7.504" transform="translate(235.713 136.158)" fill="#fafafa"/>
      <rect id="Rectangle_151" data-name="Rectangle 151" width="5.181" height="7.504" transform="translate(235.713 163.636)" fill="#fafafa"/>
      <path id="Path_32" data-name="Path 32" d="M376.915,294.6c-.082,0-.145-7.737-.145-17.279s.063-17.279.145-17.279.145,7.737.145,17.279S377,294.6,376.915,294.6Z" transform="translate(-156.336 -123.112)" fill="#e0e0e0"/>
      <rect id="Rectangle_152" data-name="Rectangle 152" width="78.685" height="60.692" transform="translate(269.287 231.819) rotate(180)" fill="#ebebeb"/>
      <rect id="Rectangle_153" data-name="Rectangle 153" width="9.479" height="10.716" transform="translate(205.705 226.524) rotate(180)" fill="#fff"/>
      <rect id="Rectangle_154" data-name="Rectangle 154" width="8.936" height="12.95" transform="translate(236.344 171.285)" fill="#fafafa"/>
      <rect id="Rectangle_155" data-name="Rectangle 155" width="8.936" height="12.95" transform="translate(236.344 218.686)" fill="#fafafa"/>
      <path id="Path_33" data-name="Path 33" d="M360.472,376.206c-.139,0-.252-13.348-.252-29.813s.114-29.813.252-29.813.246,13.348.246,29.813S360.611,376.206,360.472,376.206Z" transform="translate(-150.23 -143.97)" fill="#e0e0e0"/>
      <path id="Path_34" data-name="Path 34" d="M442.248,114.21l4.216,8.539,9.422,1.369-6.816,6.652,1.609,9.384-8.431-4.43-8.431,4.43,1.609-9.384-6.816-6.652,9.422-1.369Z" transform="translate(-175.46 -69.314)" fill="#ebebeb"/>
      <path id="Path_35" data-name="Path 35" d="M47.485,288.97l2.657,5.383,5.939.858-4.3,4.19,1.016,5.92-5.314-2.8-5.314,2.8,1.016-5.92-4.3-4.19,5.939-.858Z" transform="translate(-31.689 -133.784)" fill="#ebebeb"/>
      <path id="Path_36" data-name="Path 36" d="M46.571,214.66l5.9,11.953,13.19,1.919-9.542,9.3,2.253,13.139-11.8-6.2-11.8,6.2,2.253-13.139-9.548-9.3,13.19-1.919Z" transform="translate(-27.48 -106.371)" fill="#ebebeb"/>
      <path id="Path_37" data-name="Path 37" d="M439.459,175.32,442,180.476l5.686.827-4.115,4.007.972,5.661-5.087-2.669-5.087,2.669.972-5.661L431.23,181.3l5.686-.827Z" transform="translate(-176.426 -91.858)" fill="#ebebeb"/>
      <path id="Path_38" data-name="Path 38" d="M307.239,43.07l2.543,5.15,5.686.827-4.115,4.014.972,5.661-5.087-2.676-5.087,2.676.972-5.661-4.115-4.014,5.686-.827Z" transform="translate(-127.649 -43.07)" fill="#ebebeb"/>
      <path id="Path_39" data-name="Path 39" d="M401.073,130.41l1.666,3.37,3.723.543-2.695,2.625.637,3.7-3.332-1.748-3.326,1.748.637-3.7-2.695-2.625,3.723-.543Z" transform="translate(-163.315 -75.29)" fill="#ebebeb"/>
      <path id="Path_40" data-name="Path 40" d="M154.789,400.11l3.244,6.563,7.245,1.054-5.244,5.112,1.243,7.22-6.488-3.408-6.481,3.408,1.237-7.22-5.244-5.112,7.251-1.054Z" transform="translate(-70.576 -174.785)" fill="#ebebeb"/>
      <path id="Path_41" data-name="Path 41" d="M171.946,389.76l1.338,2.714,3,.435-2.171,2.114.511,2.985-2.676-1.414-2.676,1.414.511-2.985-2.171-2.114,3-.435Z" transform="translate(-79.175 -170.967)" fill="#ebebeb"/>
    </g>
    <g id="freepik--Stars--inject-12" transform="translate(230.717 231.438)">
      <path id="Path_42" data-name="Path 42" d="M358.74,349.92l2.853,5.775,6.374.928-4.613,4.493,1.092,6.349-5.705-3-5.7,3,1.092-6.349-4.613-4.493,6.374-.928Z" transform="translate(-349.52 -344.802)" fill="#ffc100"/>
      <path id="Path_43" data-name="Path 43" d="M383.138,341.81l1.344,2.72,3,.435-2.171,2.12.511,2.991-2.682-1.414-2.688,1.414.517-2.991-2.177-2.12,3-.435Z" transform="translate(-360.318 -341.81)" fill="#ffc100"/>
    </g>
    <g id="freepik--speech-bubble--inject-12" transform="translate(235.57 42.625)">
      <path id="Path_44" data-name="Path 44" d="M357.426,81.208l2.247-6.98A21.754,21.754,0,1,1,377.2,86.219a20.46,20.46,0,0,1-12.54-5.427h0Z" transform="translate(-357.28 -42.689)" fill="#fafafa"/>
      <path id="Path_45" data-name="Path 45" d="M357.355,81.144l.48-.038,1.395-.1,5.358-.366h0a20.056,20.056,0,0,0,9.466,4.9,21.783,21.783,0,0,0,3.32.473l1.767.069c.593,0,1.205-.069,1.818-.1a21.627,21.627,0,0,0,14.326-7.3,21.394,21.394,0,0,0,4.487-8.046,21.982,21.982,0,0,0,.543-9.788,19.323,19.323,0,0,0-.581-2.48,10.531,10.531,0,0,0-.41-1.212c-.158-.4-.3-.808-.467-1.205a22.307,22.307,0,0,0-2.651-4.519,20.485,20.485,0,0,0-1.71-1.982,10.588,10.588,0,0,0-.947-.9c-.322-.284-.631-.593-.972-.852l-1.035-.77-.518-.379-.555-.328-1.092-.631c-.372-.208-.764-.366-1.142-.555a21.608,21.608,0,0,0-29.39,11.921c-.107.29-.208.581-.309.865a5.477,5.477,0,0,0-.271.865c-.145.581-.284,1.155-.423,1.717a30.292,30.292,0,0,0-.391,3.326,21.734,21.734,0,0,0,2.209,10.432h0l-1.691,5.162-.448,1.338c-.1.3-.158.461-.158.461s.038-.145.133-.442l.4-1.325,1.622-5.232v.05a21.646,21.646,0,0,1-2.3-10.482,29.3,29.3,0,0,1,.372-3.364c.139-.568.284-1.149.423-1.735a6.357,6.357,0,0,1,.265-.877c.107-.29.208-.581.316-.877A21.823,21.823,0,0,1,388.36,44.711c.385.183.783.347,1.161.562l1.111.663.555.334.53.385,1.048.776c.347.271.663.581.991.865a11.906,11.906,0,0,1,.959.909,21.2,21.2,0,0,1,1.736,2.02,22.5,22.5,0,0,1,2.707,4.55c.17.4.309.82.467,1.224a10.581,10.581,0,0,1,.423,1.262,19.383,19.383,0,0,1,.581,2.524,22.164,22.164,0,0,1-.555,9.933,21.69,21.69,0,0,1-4.538,8.2,21.924,21.924,0,0,1-14.515,7.359c-.631,0-1.262.088-1.843.088l-1.786-.076a22.3,22.3,0,0,1-3.351-.492,19.987,19.987,0,0,1-9.466-5.011h.051l-5.408.284-1.376.063C357.506,81.144,357.355,81.144,357.355,81.144Z" transform="translate(-357.209 -42.625)" fill="#263238"/>
      <path id="Path_46" data-name="Path 46" d="M372.31,71.223l3.578-3.1,6.027,6.191L395.433,63.05l2.859,3.566-17.317,14.1Z" transform="translate(-362.78 -50.16)" fill="#ffc100"/>
    </g>
    <g id="freepik--Clipboard--inject-12" transform="translate(31.217 49.173)">
      <path id="Path_47" data-name="Path 47" d="M200.531,240.18,79.513,267.152a5.446,5.446,0,0,1-6.532-4.134L33.733,86.786a5.44,5.44,0,0,1,4.134-6.5L158.885,53.313a5.446,5.446,0,0,1,6.507,4.134l39.273,176.233a5.44,5.44,0,0,1-4.134,6.5Z" transform="translate(-33.475 -53.067)" fill="#e0e0e0"/>
      <path id="Path_48" data-name="Path 48" d="M200.457,240.113l.4-.114a6.136,6.136,0,0,0,1.13-.5,5.567,5.567,0,0,0,1.534-1.332,5.421,5.421,0,0,0,1.1-2.524,5.213,5.213,0,0,0,0-1.685c-.1-.587-.259-1.205-.4-1.849-.29-1.262-.631-2.7-.947-4.228l-2.367-10.558c-3.553-15.885-8.69-38.869-15.039-67.274-3.155-14.2-6.639-29.756-10.369-46.461q-2.789-12.521-5.774-25.875-1.483-6.677-3.017-13.537c-.517-2.285-1.029-4.588-1.552-6.9A5.3,5.3,0,0,0,160,53.24a7.358,7.358,0,0,0-1.754.252l-1.767.391-3.553.8-7.169,1.6-14.591,3.256L101.1,66.253,37.837,80.339a5.326,5.326,0,0,0-4.1,6.109c.574,2.682,1.193,5.371,1.78,8.046q1.792,8.015,3.553,15.935l6.942,31.182c4.556,20.441,8.949,40.131,13.133,58.938s8.154,36.6,11.877,53.334q.694,3.155,1.382,6.21c.234,1.022.442,2.057.688,3.061a5.346,5.346,0,0,0,1.565,2.569,5.427,5.427,0,0,0,2.676,1.313,5.679,5.679,0,0,0,1.5.044c.492-.063.991-.183,1.483-.3l5.875-1.306,22.3-4.96,67.287-14.951,18.3-4.052,4.758-1.048,1.622-.353-1.616.379-4.758,1.073-18.3,4.1L108.507,260.7l-22.271,4.979-5.875,1.313c-.492.107-.985.233-1.5.3a5.814,5.814,0,0,1-1.552-.05,5.56,5.56,0,0,1-4.418-4.033c-.252-1.016-.461-2.038-.694-3.061q-.688-3.073-1.388-6.21c-3.723-16.7-7.706-34.552-11.9-53.334s-8.583-38.5-13.146-58.938l-6.942-31.176q-1.761-7.914-3.553-15.948c-.593-2.676-1.205-5.352-1.786-8.059a5.579,5.579,0,0,1,4.3-6.393l63.267-14.1,30.084-6.677,14.585-3.25,7.169-1.6,3.559-.833,1.767-.391A7.516,7.516,0,0,1,160,53a5.547,5.547,0,0,1,5.364,4.184c.518,2.322,1.035,4.62,1.546,6.91q1.546,6.866,3.042,13.518,2.96,13.348,5.762,25.875c3.717,16.705,7.176,32.261,10.337,46.467,6.311,28.4,11.423,51.4,14.957,67.293.877,3.97,1.66,7.5,2.341,10.558.334,1.534.631,2.941.934,4.235.139.631.3,1.262.391,1.849a5.15,5.15,0,0,1,0,1.7,5.446,5.446,0,0,1-1.123,2.569A5.68,5.68,0,0,1,202,239.494a5.579,5.579,0,0,1-1.149.486Z" transform="translate(-33.401 -53)" fill="#263238"/>
      <g id="Group_144" data-name="Group 144" transform="translate(47.218 148.919)" opacity="0.3">
        <path id="Path_49" data-name="Path 49" d="M113.174,347.9l110.264-25.206-3.484-21.609L213.7,288.97,108.22,330.4Z" transform="translate(-108.22 -288.97)"/>
      </g>
      <g id="Group_145" data-name="Group 145" transform="translate(98.21 6.709)" opacity="0.3">
        <path id="Path_50" data-name="Path 50" d="M189.02,63.63l4.172,6.885L194,74.169l-2.827.631Z" transform="translate(-189.02 -63.63)"/>
      </g>
      <path id="Path_51" data-name="Path 51" d="M43.76,92.427,82.017,264.084l119.914-26.72-6.841-30.7L163.674,65.7Z" transform="translate(-37.223 -57.685)" fill="#fff"/>
      <path id="Path_52" data-name="Path 52" d="M43.756,92.368,163.664,65.54h.1v.107c10.64,47.7,23.912,107.235,38.276,171.657h0v.133h-.126L82.007,264.151h-.114v-.12C59.37,162.665,43.983,93.4,43.75,92.374c.234,1.048,15.721,70.3,38.377,171.657l-.145-.088L201.889,237.2l-.1.158h0c-14.345-64.409-27.6-123.94-38.225-171.657l.126.082Z" transform="translate(-37.219 -57.626)" fill="#263238"/>
      <path id="Path_53" data-name="Path 53" d="M4.007,0H58.187a4,4,0,0,1,3.995,3.995V18.043H0V4.007A3.995,3.995,0,0,1,4.007,0Z" transform="matrix(0.976, -0.217, 0.217, 0.976, 36.392, 15.188)" fill="#263238"/>
      <path id="Path_54" data-name="Path 54" d="M140.043,53.15,124.6,56.589l4.752,12.836,11.631-2.594Z" transform="translate(-67.045 -53.055)" fill="#263238"/>
      <path id="Path_55" data-name="Path 55" d="M150.149,57c0,.069-11.808,2.764-26.4,6.021S97.289,68.87,97.27,68.8s11.808-2.764,26.418-6.021S150.111,56.949,150.149,57Z" transform="translate(-56.963 -54.475)" fill="#455a64"/>
      <path id="Path_56" data-name="Path 56" d="M97.009,93.5c-.069,0-.682-2.461-1.363-5.528S94.46,82.4,94.536,82.38s.682,2.461,1.363,5.535S97.079,93.5,97.009,93.5Z" transform="translate(-55.951 -63.838)" fill="#455a64"/>
      <path id="Path_57" data-name="Path 57" d="M187.549,71.737a50.606,50.606,0,0,1-1.262-5.049,50.683,50.683,0,0,1-1-5.049,50.61,50.61,0,0,1,1.262,5.017,50.692,50.692,0,0,1,1,5.08Z" transform="translate(-89.434 -56.187)" fill="#455a64"/>
      <path id="Path_58" data-name="Path 58" d="M153.334,82.389c0,.069-12.123,2.834-27.105,6.172s-27.137,6-27.169,5.92,12.117-2.834,27.137-6.172S153.3,82.32,153.334,82.389Z" transform="translate(-57.623 -63.841)" fill="#455a64"/>
      <path id="Path_59" data-name="Path 59" d="M113.027,161.509c0,.076-8.173,1.956-18.3,4.216s-18.3,4.02-18.346,3.951,8.2-1.956,18.3-4.209S113.008,161.439,113.027,161.509Z" transform="translate(-49.256 -93.029)" fill="#263238"/>
      <path id="Path_60" data-name="Path 60" d="M175.271,150.62c0,.076-21.375,4.9-47.774,10.785S79.673,172,79.66,171.932s21.369-4.9,47.78-10.785S175.258,150.55,175.271,150.62Z" transform="translate(-50.466 -89.012)" fill="#263238"/>
      <path id="Path_61" data-name="Path 61" d="M177.357,160c0,.069-21.381,4.9-47.78,10.785s-47.818,10.6-47.837,10.52,21.375-4.9,47.78-10.779S177.338,159.911,177.357,160Z" transform="translate(-51.234 -92.472)" fill="#263238"/>
      <path id="Path_62" data-name="Path 62" d="M179.437,169.32c0,.069-21.375,4.9-47.774,10.779S83.839,190.7,83.82,190.625s21.375-4.9,47.786-10.785S179.418,169.25,179.437,169.32Z" transform="translate(-52.001 -95.911)" fill="#263238"/>
      <path id="Path_63" data-name="Path 63" d="M181.52,178.669c0,.069-21.375,4.9-47.774,10.779s-47.824,10.6-47.837,10.527,21.369-4.9,47.78-10.785S181.508,178.594,181.52,178.669Z" transform="translate(-52.772 -99.36)" fill="#263238"/>
      <path id="Path_64" data-name="Path 64" d="M183.61,188c0,.076-21.381,4.9-47.78,10.785S88,209.387,88,209.318s21.375-4.9,47.78-10.785S183.592,187.937,183.61,188Z" transform="translate(-53.543 -102.802)" fill="#263238"/>
      <path id="Path_65" data-name="Path 65" d="M109.9,247.686a.985.985,0,0,1-.057-.2l-.139-.562c-.12-.511-.29-1.224-.5-2.114-.423-1.824-1.016-4.386-1.723-7.453l.139.088-10.35,2.322.1-.158h0v.133l.038.177.082.353.151.7c.107.467.208.928.309,1.388.2.909.4,1.8.593,2.676.385,1.736.745,3.376,1.079,4.885l-.139-.088,7.478-1.609,2.127-.442.568-.107.2-.038a.519.519,0,0,0-.177.057l-.536.133-2.083.492-7.5,1.786h-.114V250l-1.1-4.878c-.2-.871-.4-1.767-.631-2.676-.1-.461-.208-.921-.309-1.388-.057-.227-.107-.467-.158-.7L97.175,240l-.038-.177v-.164h0c-.088.145.12-.189.1-.158l10.356-2.291h.114v.114l1.628,7.573c.183.884.328,1.59.435,2.1.044.227.076.4.107.549a.561.561,0,0,1,.019.145Z" transform="translate(-56.906 -120.956)" fill="#263238"/>
      <rect id="Rectangle_156" data-name="Rectangle 156" width="73.977" height="6.172" transform="matrix(0.976, -0.217, 0.217, 0.976, 57.716, 117.302)" fill="#e0e0e0"/>
      <path id="Path_66" data-name="Path 66" d="M116.232,276.154a1.459,1.459,0,0,1-.057-.2c-.038-.145-.082-.334-.139-.562-.12-.511-.29-1.218-.5-2.108-.423-1.83-1.016-4.418-1.723-7.46l.139.088-10.35,2.322c0,.038.189-.3.1-.151h0v.164l.038.177.082.353c.05.24.1.473.158.707l.3,1.382c.2.915.4,1.8.593,2.676.385,1.736.745,3.376,1.079,4.885l-.139-.088,7.485-1.6,2.12-.442.568-.114a.878.878,0,0,1,.2-.032l-.17.05-.543.133-2.083.5-7.529,1.736h-.114v-.114l-1.1-4.878c-.2-.871-.4-1.767-.631-2.676-.1-.454-.208-.921-.309-1.382-.05-.234-.107-.467-.158-.707l-.082-.353-.038-.177v-.164h0l.1-.164,10.35-2.259H114v.107c.669,3.111,1.262,5.68,1.628,7.573.183.884.328,1.59.435,2.1.044.227.076.4.107.549A.581.581,0,0,1,116.232,276.154Z" transform="translate(-59.239 -131.463)" fill="#263238"/>
      <rect id="Rectangle_157" data-name="Rectangle 157" width="73.977" height="6.172" transform="matrix(0.976, -0.217, 0.217, 0.976, 61.714, 135.263)" fill="#e0e0e0"/>
      <path id="Path_67" data-name="Path 67" d="M122.545,304.6a.55.55,0,0,0-.057-.2,4.538,4.538,0,0,1-.139-.562c-.12-.511-.29-1.218-.5-2.108-.423-1.824-1.016-4.418-1.723-7.46l.139.088-10.375,2.322c0,.038.189-.3.1-.151h0v.177l.038.177.082.353c.05.24.1.473.158.707l.3,1.382c.2.915.4,1.8.593,2.676l1.079,4.885-.139-.082,7.485-1.609,2.12-.442.568-.114a.931.931,0,0,1,.2,0l-.17.05-.543.133-2.083.5-7.529,1.736h-.114v-.114c-.334-1.5-.707-3.155-1.1-4.878-.2-.871-.4-1.761-.631-2.676-.1-.454-.208-.915-.309-1.382-.05-.233-.107-.467-.158-.7l-.076-.353-.044-.177v-.2h0c-.088.139.12-.2.1-.158l10.356-2.291h.114v.114l1.628,7.573c.183.884.328,1.59.435,2.1.044.221.082.4.107.543A.594.594,0,0,1,122.545,304.6Z" transform="translate(-61.55 -141.951)" fill="#263238"/>
      <rect id="Rectangle_158" data-name="Rectangle 158" width="73.977" height="6.172" transform="matrix(0.976, -0.217, 0.217, 0.976, 65.72, 153.224)" fill="#e0e0e0"/>
      <path id="Path_68" data-name="Path 68" d="M101.61,244.328l1.085-1.71,3.225,1.792,4.153-6.26,1.6,1.111-5.352,7.889Z" transform="translate(-58.564 -121.303)" fill="#ffc100"/>
      <path id="Path_69" data-name="Path 69" d="M107.74,271.828l1.085-1.71,3.225,1.792,4.146-6.26,1.609,1.111-5.358,7.882Z" transform="translate(-60.825 -131.448)" fill="#ffc100"/>
      <path id="Path_70" data-name="Path 70" d="M114.03,300.022l1.085-1.7,3.219,1.792,4.153-6.26,1.6,1.1-5.352,7.889Z" transform="translate(-63.146 -141.851)" fill="#ffc100"/>
      <path id="Path_71" data-name="Path 71" d="M150.448,339c0,.076-6.084,1.5-13.619,3.155s-13.657,2.979-13.669,2.909,6.077-1.489,13.613-3.155S150.429,338.936,150.448,339Z" transform="translate(-66.514 -158.506)" fill="#263238"/>
      <path id="Path_72" data-name="Path 72" d="M182.06,333.856a49.634,49.634,0,0,1-5.011,1.262,51.45,51.45,0,0,1-5.049.991,50.306,50.306,0,0,1,5-1.262C179.775,334.234,182.047,333.786,182.06,333.856Z" transform="translate(-84.531 -156.607)" fill="#263238"/>
      <path id="Path_73" data-name="Path 73" d="M244.926,311.408c0,.069-5.472,1.357-12.25,2.865s-12.294,2.676-12.306,2.606,5.465-1.351,12.25-2.865S244.913,311.339,244.926,311.408Z" transform="translate(-102.375 -148.328)" fill="#263238"/>
      <path id="Path_74" data-name="Path 74" d="M237.929,330.98a4.347,4.347,0,0,0,.12-.5,3.313,3.313,0,0,0-.076-1.458,13.063,13.063,0,0,0-.871-2.177,7.252,7.252,0,0,1-.865-3,4.639,4.639,0,0,1,1.6-3.4,4.367,4.367,0,0,1,4.19-.776,4.248,4.248,0,0,1,1.994,1.306,2.026,2.026,0,0,1,.473,1.18,1.092,1.092,0,0,1-.738,1.067,8.939,8.939,0,0,1-1.262.309l-1.262.259c-.846.17-1.7.322-2.587.435a18.876,18.876,0,0,1-5.162.032,3.155,3.155,0,0,0-2.266.366,7.881,7.881,0,0,0-1.363,1.849,2.253,2.253,0,0,1-.883.783,1.59,1.59,0,0,1-1.155.05,10.292,10.292,0,0,1-1.843-1.06,2.108,2.108,0,0,0-.89-.334,1.262,1.262,0,0,0-.846.208,4.941,4.941,0,0,0-1.067,1.4,3.326,3.326,0,0,1-2.663,1.54,3.155,3.155,0,0,1-2.209-.783,3.263,3.263,0,0,1-.877-1.212,2.177,2.177,0,0,1-.145-.5s.057.17.2.48a3.2,3.2,0,0,0,.89,1.149,3.055,3.055,0,0,0,2.133.719,3.155,3.155,0,0,0,2.524-1.5,5.049,5.049,0,0,1,1.111-1.464,1.483,1.483,0,0,1,.984-.259,2.525,2.525,0,0,1,.972.36,10.647,10.647,0,0,0,1.8,1.029,1.376,1.376,0,0,0,.991-.044,1.893,1.893,0,0,0,.776-.713,8.015,8.015,0,0,1,1.414-1.893,2.43,2.43,0,0,1,1.186-.442,5.972,5.972,0,0,1,1.262,0,18.964,18.964,0,0,0,5.106-.032c.871-.114,1.723-.271,2.569-.435l1.262-.252a10.405,10.405,0,0,0,1.2-.3.833.833,0,0,0,.581-.82,1.824,1.824,0,0,0-.417-1.029,4.064,4.064,0,0,0-1.893-1.262,4.165,4.165,0,0,0-3.976.719,4.418,4.418,0,0,0-1.552,3.231,7.252,7.252,0,0,0,.808,2.947,12.451,12.451,0,0,1,.839,2.209,3.313,3.313,0,0,1,.032,1.489,2.315,2.315,0,0,1-.151.524Z" transform="translate(-101.235 -151.29)" fill="#263238"/>
      <path id="Path_75" data-name="Path 75" d="M251.568,324.93a2.038,2.038,0,0,1-.328.1l-.959.227-3.521.814c-2.966.694-7.068,1.666-11.581,2.808s-8.583,2.247-11.517,3.054l-3.484.959-.953.252a2.11,2.11,0,0,1-.334.076,1.382,1.382,0,0,1,.322-.126l.934-.3c.814-.259,1.994-.631,3.458-1.041,2.935-.858,6.993-1.988,11.511-3.155s8.621-2.089,11.606-2.726c1.489-.322,2.7-.574,3.54-.738l.966-.183a1.894,1.894,0,0,1,.341-.025Z" transform="translate(-101.829 -153.317)" fill="#263238"/>
      <rect id="Rectangle_159" data-name="Rectangle 159" width="50.216" height="9.435" transform="matrix(0.976, -0.217, 0.217, 0.976, 48.961, 44.057)" fill="#e0e0e0"/>
    </g>
    <g id="freepik--Character--inject-12" transform="translate(83.629 55.973)">
      <path id="Path_76" data-name="Path 76" d="M262.12,337.374l15.834,83.658,14.471-26.739,27.427,16.1L290.74,328.93Z" transform="translate(-170.189 -161.593)" fill="#ffc100"/>
      <g id="Group_146" data-name="Group 146" transform="translate(95.313 181.435)" opacity="0.3">
        <path id="Path_77" data-name="Path 77" d="M269.424,373.75a9.466,9.466,0,0,0,8.419-2.581c1.445-1.489,2.4-3.521,4.222-4.519a7.336,7.336,0,0,1,5.446-.271c1.8.5,3.49,1.325,5.289,1.792a13.8,13.8,0,0,0,10.552-1.565l-4.569-12.685-21.2-2.651-10.1,12.149Z" transform="translate(-267.48 -351.27)"/>
      </g>
      <path id="Path_78" data-name="Path 78" d="M302.535,404.5c-.088,0-2.449-8.671-5.27-19.406s-5.049-19.469-4.948-19.488,2.442,8.659,5.263,19.406S302.624,404.479,302.535,404.5Z" transform="translate(-181.328 -175.125)" fill="#263238"/>
      <path id="Path_79" data-name="Path 79" d="M232.042,344.264l-15.834,83.658-14.471-26.733L174.31,417.281l29.112-81.461Z" transform="translate(-137.795 -164.135)" fill="#ffc100"/>
      <g id="Group_147" data-name="Group 147" transform="translate(56.918 182.691)" opacity="0.3">
        <path id="Path_80" data-name="Path 80" d="M206.64,366.62s4.506,3.7,9.877,2,8.709-2.07,11.618,0,10.779,8.8,10.779,8.8l1.824-9.649L230.167,353.26l-11.031,2.228-7.851.764-2.922,5.535Z" transform="translate(-206.64 -353.26)"/>
      </g>
      <path id="Path_81" data-name="Path 81" d="M303.641,174.908c0,6-7.668,11.17-8.791,16.844-1.155,5.844,3.932,13.55,1.7,18.933s-11.36,7.314-14.6,12.18-1.534,13.979-5.68,18.131-13.253,2.4-18.131,5.68-6.709,12.325-12.18,14.6c-5.377,2.228-13.083-2.859-18.933-1.7-5.68,1.123-10.842,8.791-16.844,8.791s-11.177-7.668-16.85-8.791c-5.844-1.155-13.55,3.932-18.933,1.7s-7.308-11.36-12.174-14.6-13.979-1.534-18.138-5.68-2.4-13.253-5.68-18.131-12.325-6.709-14.591-12.18,2.859-13.083,1.7-18.933c-1.123-5.68-8.8-10.842-8.8-16.844s7.674-11.177,8.8-16.85c1.155-5.844-3.938-13.55-1.7-18.933s11.36-7.314,14.591-12.174,1.534-13.979,5.68-18.138,13.253-2.4,18.138-5.68,6.7-12.325,12.174-14.591,13.083,2.859,18.933,1.7c5.68-1.123,10.848-8.8,16.85-8.8s11.17,7.674,16.844,8.8c5.844,1.155,13.55-3.938,18.933-1.7,5.472,2.266,7.314,11.36,12.18,14.591s13.979,1.534,18.131,5.68,2.4,13.253,5.68,18.138,12.325,6.7,14.6,12.174-2.859,13.083-1.7,18.933C295.973,163.732,303.641,168.888,303.641,174.908Z" transform="translate(-116.554 -70.296)" fill="#ffc100"/>
      <path id="Path_82" data-name="Path 82" d="M223.762,130.1a1.89,1.89,0,0,1-.17-.259c-.1-.177-.259-.461-.429-.77-.372-.669-.884-1.653-1.489-2.878-1.218-2.449-2.8-5.894-4.317-9.782s-2.688-7.5-3.452-10.1c-.379-1.319-.669-2.386-.852-3.155-.082-.341-.151-.631-.2-.858a.978.978,0,0,1-.05-.3,1.343,1.343,0,0,1,.114.29l.259.839c.246.776.568,1.824.953,3.092.82,2.606,2.026,6.185,3.534,10.1s3.061,7.327,4.222,9.8l1.395,2.922.372.8A1.59,1.59,0,0,1,223.762,130.1Z" transform="translate(-151.995 -77.877)" fill="#263238"/>
      <path id="Path_83" data-name="Path 83" d="M241.378,130.8a2.978,2.978,0,0,1-.246-.694c-.133-.454-.309-1.117-.518-1.937-.417-1.635-.934-3.919-1.4-6.456s-.8-4.853-.985-6.532c-.1-.839-.164-1.521-.2-1.994a3.093,3.093,0,0,1,0-.732,3.631,3.631,0,0,1,.145.719l.3,1.975c.252,1.672.631,3.976,1.079,6.507s.947,4.815,1.3,6.462c.17.77.309,1.426.423,1.956A3.681,3.681,0,0,1,241.378,130.8Z" transform="translate(-161.293 -81.732)" fill="#263238"/>
      <path id="Path_84" data-name="Path 84" d="M266.159,120.72c-.095,0-.328-7.081-.524-15.809s-.284-15.815-.2-15.821.328,7.075.524,15.815S266.248,120.72,266.159,120.72Z" transform="translate(-171.401 -73.114)" fill="#263238"/>
      <path id="Path_85" data-name="Path 85" d="M287.154,116.16c.088,0-.934,3.566-2.278,7.908s-2.524,7.832-2.588,7.807.934-3.566,2.278-7.908S287.059,116.135,287.154,116.16Z" transform="translate(-177.628 -83.101)" fill="#263238"/>
      <path id="Path_86" data-name="Path 86" d="M299.54,128.844a1.073,1.073,0,0,1,.082-.3l.284-.833c.252-.719.631-1.754,1.136-3.029.991-2.524,2.4-6.052,4.02-9.9s3.118-7.314,4.222-9.813c.543-1.212.991-2.209,1.332-2.954l.372-.8c.095-.177.145-.271.158-.265a1.751,1.751,0,0,1-.095.29l-.322.82-1.231,3c-1.079,2.562-2.524,6.021-4.134,9.851s-3.036,7.289-4.108,9.858l-1.231,2.991-.347.808A1.261,1.261,0,0,1,299.54,128.844Z" transform="translate(-183.994 -77.49)" fill="#263238"/>
      <path id="Path_87" data-name="Path 87" d="M312,143.1a3.237,3.237,0,0,1,.36-.631c.252-.4.631-.978,1.1-1.679.947-1.395,2.31-3.3,3.894-5.333s3.105-3.787,4.228-5.049c.562-.631,1.029-1.13,1.357-1.47a3.091,3.091,0,0,1,.536-.5,2.985,2.985,0,0,1-.442.593c-.341.417-.77.928-1.262,1.534-1.079,1.3-2.562,3.1-4.146,5.131s-2.966,3.906-3.963,5.27l-1.18,1.609A3.43,3.43,0,0,1,312,143.1Z" transform="translate(-188.59 -87.627)" fill="#263238"/>
      <path id="Path_88" data-name="Path 88" d="M330.22,154.318c-.063-.063,4.935-4.809,11.151-10.6s11.315-10.426,11.36-10.363-4.929,4.815-11.151,10.6S330.283,154.388,330.22,154.318Z" transform="translate(-195.311 -89.446)" fill="#263238"/>
      <path id="Path_89" data-name="Path 89" d="M354.338,169.68a16.96,16.96,0,0,1-1.893,1.035c-1.186.631-2.8,1.508-4.575,2.524s-3.421,1.862-4.639,2.43c-.631.284-1.1.5-1.452.631a1.969,1.969,0,0,1-.549.189,16.952,16.952,0,0,1,1.893-1.035c1.186-.631,2.8-1.508,4.575-2.524s3.421-1.893,4.639-2.43c.631-.284,1.1-.5,1.451-.631A1.792,1.792,0,0,1,354.338,169.68Z" transform="translate(-199.373 -102.845)" fill="#263238"/>
      <path id="Path_90" data-name="Path 90" d="M375.822,181.869c.032.088-5.913,2.259-13.253,4.853s-13.354,4.62-13.379,4.538,5.907-2.259,13.253-4.853S375.79,181.787,375.822,181.869Z" transform="translate(-202.31 -107.34)" fill="#263238"/>
      <path id="Path_91" data-name="Path 91" d="M383.9,233.729c0,.088-6.469-.448-14.427-1.205s-14.408-1.445-14.4-1.54,6.462.454,14.427,1.212S383.908,233.641,383.9,233.729Z" transform="translate(-204.483 -125.456)" fill="#263238"/>
      <path id="Path_92" data-name="Path 92" d="M377.534,275.888c-.038.082-6.077-2.695-13.486-6.191s-13.385-6.406-13.348-6.488,6.077,2.688,13.486,6.191S377.572,275.806,377.534,275.888Z" transform="translate(-202.867 -137.348)" fill="#263238"/>
      <path id="Path_93" data-name="Path 93" d="M350.521,315.612c-.069.057-4.418-5-9.725-11.284s-9.548-11.442-9.466-11.5,4.418,4.992,9.725,11.284S350.59,315.549,350.521,315.612Z" transform="translate(-195.721 -148.275)" fill="#263238"/>
      <path id="Path_94" data-name="Path 94" d="M328.927,323.66a4.705,4.705,0,0,1-.524-.707c-.322-.467-.776-1.155-1.319-2.007-1.1-1.71-2.569-4.1-4.121-6.784s-2.878-5.156-3.787-6.942c-.461-.9-.833-1.635-1.073-2.146a4.81,4.81,0,0,1-.353-.814,4.831,4.831,0,0,1,.467.751c.3.555.694,1.262,1.168,2.1.978,1.773,2.341,4.222,3.888,6.9s2.985,5.087,4.033,6.822c.492.833.909,1.521,1.231,2.064A3.862,3.862,0,0,1,328.927,323.66Z" transform="translate(-190.712 -152.492)" fill="#263238"/>
      <path id="Path_95" data-name="Path 95" d="M313.164,341.476a2.525,2.525,0,0,1-.164-.259l-.41-.77c-.36-.675-.846-1.66-1.426-2.884-1.161-2.455-2.657-5.9-4.077-9.8s-2.493-7.5-3.156-10.1c-.347-1.313-.631-2.386-.77-3.124-.069-.341-.126-.631-.177-.858a1.481,1.481,0,0,1-.044-.3.94.94,0,0,1,.107.29l.24.839c.221.783.511,1.824.865,3.092.745,2.606,1.849,6.191,3.269,10.1s2.871,7.333,3.982,9.813l1.325,2.922q.208.473.36.8A1.026,1.026,0,0,1,313.164,341.476Z" transform="translate(-185.248 -155.857)" fill="#263238"/>
      <path id="Path_96" data-name="Path 96" d="M284.626,333.115a17.554,17.554,0,0,1-.271-2.2c-.145-1.357-.379-3.231-.719-5.282s-.738-3.894-1.041-5.225a17.071,17.071,0,0,1-.454-2.171,2.437,2.437,0,0,1,.215.555c.126.366.284.9.467,1.559.36,1.319.789,3.155,1.136,5.232a51.669,51.669,0,0,1,.631,5.314c.044.682.069,1.262.069,1.622a2.208,2.208,0,0,1-.031.593Z" transform="translate(-177.575 -157.65)" fill="#263238"/>
      <path id="Path_97" data-name="Path 97" d="M264.444,352.018a1.188,1.188,0,0,1,0-.322q0-.379,0-.928v-3.414c.05-2.884.183-6.86.41-11.246s.511-8.362.745-11.233c.114-1.439.221-2.6.3-3.4.044-.366.076-.675.1-.921a1.3,1.3,0,0,1,.063-.322,1.221,1.221,0,0,1,0,.328,7.472,7.472,0,0,1-.044.928c-.05.852-.114,2-.2,3.4-.17,2.922-.4,6.873-.631,11.233s-.4,8.362-.5,11.24c-.05,1.4-.095,2.524-.126,3.408,0,.372-.038.675-.05.928A1.117,1.117,0,0,1,264.444,352.018Z" transform="translate(-171.042 -158.384)" fill="#263238"/>
      <path id="Path_98" data-name="Path 98" d="M245.4,320.23a7.51,7.51,0,0,1-.189,1.616c-.164.984-.429,2.341-.776,3.824s-.713,2.821-1,3.787a7.323,7.323,0,0,1-.549,1.527,8.475,8.475,0,0,1,.322-1.59l.909-3.787c.328-1.42.631-2.707.871-3.787a8.563,8.563,0,0,1,.417-1.59Z" transform="translate(-163.091 -158.384)" fill="#263238"/>
      <path id="Path_99" data-name="Path 99" d="M211.7,305a34.22,34.22,0,0,1-2.758,3.913,36.921,36.921,0,0,1-3.023,3.717,33.59,33.59,0,0,1,2.758-3.913A35.1,35.1,0,0,1,211.7,305Z" transform="translate(-149.457 -152.765)" fill="#263238"/>
      <path id="Path_100" data-name="Path 100" d="M188.036,293.76c.063.057-3.85,4.657-8.747,10.268s-8.93,10.1-9,10.053,3.85-4.657,8.747-10.268S187.966,293.7,188.036,293.76Z" transform="translate(-136.312 -148.618)" fill="#263238"/>
      <path id="Path_101" data-name="Path 101" d="M184.264,281.35a62.124,62.124,0,0,1-4.866,4.228c-2.745,2.259-5.017,4.039-5.049,3.97a62.937,62.937,0,0,1,4.866-4.222,63.9,63.9,0,0,1,5.049-3.976Z" transform="translate(-137.81 -144.041)" fill="#263238"/>
      <path id="Path_102" data-name="Path 102" d="M165.971,262.639c.038.082-5.415,2.8-12.186,6.052s-12.281,5.838-12.325,5.756,5.415-2.789,12.186-6.052S165.934,262.557,165.971,262.639Z" transform="translate(-125.677 -137.137)" fill="#263238"/>
      <path id="Path_103" data-name="Path 103" d="M167.692,253.31a2.236,2.236,0,0,1-.568.164c-.372.088-.909.2-1.571.322-1.332.252-3.187.53-5.244.738s-3.932.3-5.289.316h-1.6a1.835,1.835,0,0,1-.587-.057,18.706,18.706,0,0,1,2.184-.17c1.351-.082,3.212-.208,5.263-.417s3.9-.448,5.238-.631A15.474,15.474,0,0,1,167.692,253.31Z" transform="translate(-129.871 -133.696)" fill="#263238"/>
      <path id="Path_104" data-name="Path 104" d="M156.831,231.349a6.679,6.679,0,0,1-1.1,0l-3-.151c-2.524-.126-6.033-.24-9.9-.221s-7.377.177-9.908.328l-3,.183a6.945,6.945,0,0,1-1.1.038,6.4,6.4,0,0,1,1.092-.164c.707-.082,1.729-.183,2.991-.29,2.524-.208,6.046-.4,9.921-.423s7.39.133,9.927.316c1.262.095,2.291.183,3,.259A7.827,7.827,0,0,1,156.831,231.349Z" transform="translate(-121.01 -125.335)" fill="#263238"/>
      <path id="Path_105" data-name="Path 105" d="M164.553,209.875c0,.088-4.108-.978-9.126-2.379s-9.062-2.6-9.037-2.688,4.108.972,9.126,2.373S164.578,209.786,164.553,209.875Z" transform="translate(-127.495 -115.801)" fill="#263238"/>
      <path id="Path_106" data-name="Path 106" d="M163.725,189.3a1.01,1.01,0,0,1-.3-.063l-.839-.252c-.719-.227-1.761-.581-3.029-1.041a100.826,100.826,0,0,1-9.731-4.165A99.285,99.285,0,0,1,140.6,178.6c-1.142-.726-2.057-1.332-2.676-1.767l-.707-.511c-.158-.12-.24-.183-.234-.2a1.426,1.426,0,0,1,.271.145l.745.454c.631.4,1.565.978,2.72,1.679,2.316,1.4,5.56,3.25,9.258,5.049s7.144,3.263,9.668,4.247c1.262.486,2.278.871,2.991,1.136l.814.309a1.894,1.894,0,0,1,.278.151Z" transform="translate(-124.024 -105.224)" fill="#263238"/>
      <path id="Path_107" data-name="Path 107" d="M180.543,175.2c-.05.069-3.244-2.089-7.131-4.828s-7-5.017-6.942-5.093,3.244,2.089,7.138,4.828S180.593,175.143,180.543,175.2Z" transform="translate(-134.903 -101.22)" fill="#263238"/>
      <path id="Path_108" data-name="Path 108" d="M168.879,132.42a2.187,2.187,0,0,1,.24.17l.631.555,2.329,2.057,7.643,6.822,7.674,6.784,2.322,2.064.631.574a1.155,1.155,0,0,1,.2.215,1.786,1.786,0,0,1-.246-.164l-.631-.524c-.574-.461-1.388-1.142-2.392-1.988-2.007-1.691-4.746-4.058-7.744-6.715s-5.68-5.106-7.573-6.9c-.959-.9-1.729-1.622-2.259-2.139l-.6-.593C168.955,132.5,168.867,132.426,168.879,132.42Z" transform="translate(-135.792 -89.099)" fill="#263238"/>
      <path id="Path_109" data-name="Path 109" d="M200.07,133.33a4.009,4.009,0,0,1,.429.435c.259.3.631.732,1.067,1.262.877,1.1,2.045,2.651,3.256,4.418s2.228,3.421,2.928,4.639c.353.631.631,1.1.808,1.452a2.227,2.227,0,0,1,.252.555,16.988,16.988,0,0,1-1.262-1.893c-.751-1.186-1.8-2.808-3-4.575s-2.341-3.326-3.155-4.455a18.982,18.982,0,0,1-1.319-1.836Z" transform="translate(-147.298 -89.435)" fill="#263238"/>
      <g id="Group_148" data-name="Group 148" transform="translate(27.547 32.693)" opacity="0.2">
        <path id="Path_110" data-name="Path 110" d="M160.1,121.411l27.459,24.038,6.822-5.459L178.452,115.58a15.26,15.26,0,0,1-4.418,1.8C170.986,118.262,161.93,118.5,160.1,121.411Z" transform="translate(-160.1 -115.58)"/>
      </g>
      <g id="Group_149" data-name="Group 149" transform="translate(58.111 17.666)" opacity="0.2">
        <path id="Path_111" data-name="Path 111" d="M208.53,92.293l13.4,33.555,8.57-2.682L227.646,94.06a15.016,15.016,0,0,1-4.746-.069C219.726,93.587,212.033,90.577,208.53,92.293Z" transform="translate(-208.53 -91.769)"/>
      </g>
      <g id="Group_150" data-name="Group 150" transform="translate(93.856 11.155)" opacity="0.3">
        <path id="Path_112" data-name="Path 112" d="M265.17,81.463l.9,36.439,8.028.385,8.128-27.97a13.108,13.108,0,0,1-4.727-1.956C274.725,86.581,269.057,81.167,265.17,81.463Z" transform="translate(-265.17 -81.451)"/>
      </g>
      <g id="Group_151" data-name="Group 151" transform="translate(115.546 18.052)" opacity="0.2">
        <path id="Path_113" data-name="Path 113" d="M312.862,92.38,299.54,125.973l7.232,3.465,18.333-22.631a16.282,16.282,0,0,1-3.477-4.1C319.9,99.915,316.92,93.5,312.862,92.38Z" transform="translate(-299.54 -92.38)"/>
      </g>
      <g id="Group_152" data-name="Group 152" transform="translate(135.344 39.01)" opacity="0.2">
        <path id="Path_114" data-name="Path 114" d="M355.725,125.59,330.91,151.465l5.528,7.453,24.247-16.181a14.617,14.617,0,0,1-1.6-4.721C358.508,134.861,358.426,129.13,355.725,125.59Z" transform="translate(-330.91 -125.59)"/>
      </g>
      <g id="Group_153" data-name="Group 153" transform="translate(146.331 68.205)" opacity="0.2">
        <path id="Path_115" data-name="Path 115" d="M381.736,171.85,348.32,185.6l2.77,8.539,29.074-3.155a16.823,16.823,0,0,1,.2-4.172C380.733,183.639,384.09,176.545,381.736,171.85Z" transform="translate(-348.32 -171.85)"/>
      </g>
      <g id="Group_154" data-name="Group 154" transform="translate(150.414 104.612)" opacity="0.2">
        <path id="Path_116" data-name="Path 116" d="M391.526,229.54,355.093,230.8l-.3,8.034,27.768,8.128a10.817,10.817,0,0,1,1.1-3.313C385.726,239.789,391.526,234.336,391.526,229.54Z" transform="translate(-354.79 -229.54)"/>
      </g>
      <g id="Group_155" data-name="Group 155" transform="translate(143.497 125.988)" opacity="0.2">
        <path id="Path_117" data-name="Path 117" d="M380.762,276.48l-33.543-13.07-3.389,7.314,22.827,18.068a21.774,21.774,0,0,1,3.957-3C373.39,284.015,379.992,281.144,380.762,276.48Z" transform="translate(-343.83 -263.41)"/>
      </g>
      <g id="Group_156" data-name="Group 156" transform="translate(0.176 56.018)" opacity="0.2">
        <path id="Path_118" data-name="Path 118" d="M319.325,283.3l-8.305,6.942c.631.631,11.694,19.463,18.516,31.088a3.227,3.227,0,0,1,.278-.215c4.487-3,12.477-1.8,16.983-4.771Z" transform="translate(-188.405 -200.778)"/>
        <path id="Path_119" data-name="Path 119" d="M292.755,304.18l-12.395,4.228,5.869,33.65a8.673,8.673,0,0,1,1.168-.322c5.844-1.155,13.55,3.932,18.933,1.7a7.963,7.963,0,0,0,2.032-1.262Z" transform="translate(-177.094 -208.481)"/>
        <path id="Path_120" data-name="Path 120" d="M254.364,350.312l1.975-43.962-10.729-2.72L237.64,341.5l.29.05C243.484,342.625,248.539,349.933,254.364,350.312Z" transform="translate(-161.335 -208.278)"/>
        <path id="Path_121" data-name="Path 121" d="M208.831,296.11s-14.162,18.971-21.571,29.182a10.24,10.24,0,0,1,1,.574c4.866,3.256,6.7,12.325,12.174,14.6.252.1.511.183.77.259l19.785-37.449Z" transform="translate(-142.749 -205.504)"/>
        <path id="Path_122" data-name="Path 122" d="M180.754,271.91l-30.2,20.757c.114.151.24.3.341.454,3.282,4.9,1.534,13.979,5.68,18.131a7.24,7.24,0,0,0,1.262.991c10.672-12.029,29.832-33.625,30.526-34.376Z" transform="translate(-129.206 -196.576)"/>
        <path id="Path_123" data-name="Path 123" d="M165.166,248.42l-35.714,5.768c.574,5.73-3.944,12.963-1.818,18.087a6.073,6.073,0,0,0,.461.9c12.5-6.223,38.6-19.166,39.689-19.236Z" transform="translate(-120.541 -187.911)"/>
        <path id="Path_124" data-name="Path 124" d="M159.4,211.208l-33.757-9.738c-.032.29-.069.581-.12.865-1.123,5.68-8.8,10.848-8.8,16.85a7.479,7.479,0,0,0,.1,1.193h41.2Z" transform="translate(-116.73 -170.591)"/>
        <path id="Path_125" data-name="Path 125" d="M128.19,165.092c12.622,6.759,37.279,20.435,37.279,20.435L171.54,174,143.027,152.54a5.976,5.976,0,0,1-.385.631C139.43,157.961,130.639,159.829,128.19,165.092Z" transform="translate(-120.958 -152.54)"/>
      </g>
      <path id="Path_126" data-name="Path 126" d="M303.538,174.855l-.038-.4a5.88,5.88,0,0,0-.164-1.174,12.737,12.737,0,0,0-1.893-4.228c-1.085-1.742-2.726-3.692-4.418-6.159a14.85,14.85,0,0,1-2.171-4.323,12.414,12.414,0,0,1,0-5.5c.353-1.925.928-3.906,1.426-6.008a15.524,15.524,0,0,0,.5-6.7,7.643,7.643,0,0,0-1.571-3.2,14.742,14.742,0,0,0-2.8-2.487c-2.1-1.489-4.506-2.676-6.81-4.228a15.777,15.777,0,0,1-3.219-2.752,10.444,10.444,0,0,1-1.975-3.906c-.808-2.871-.991-5.939-1.6-9.006a14.206,14.206,0,0,0-1.559-4.456,7.535,7.535,0,0,0-3.591-3.111,19.8,19.8,0,0,0-4.828-1.262c-1.672-.278-3.389-.473-5.106-.776a16.307,16.307,0,0,1-5.049-1.6,11.852,11.852,0,0,1-3.888-3.787c-1.048-1.5-1.95-3.118-2.909-4.714a24.822,24.822,0,0,0-3.282-4.544,7.731,7.731,0,0,0-4.979-2.442,18.99,18.99,0,0,0-5.768.675c-1.893.461-3.837,1.022-5.825,1.395a12.319,12.319,0,0,1-6.1-.114,20.775,20.775,0,0,1-5.383-3.111c-1.685-1.262-3.326-2.524-5.124-3.648a9.4,9.4,0,0,0-5.958-1.7h-.4a1.99,1.99,0,0,0-.385.082c-.259.063-.524.107-.776.183a12.545,12.545,0,0,0-1.489.581,20.058,20.058,0,0,0-2.8,1.622c-1.792,1.262-3.49,2.638-5.333,3.888a19.414,19.414,0,0,1-2.9,1.679,9.775,9.775,0,0,1-3.288.827,23.173,23.173,0,0,1-6.727-.953,45.748,45.748,0,0,0-6.708-1.382,10.312,10.312,0,0,0-3.383.227,7.434,7.434,0,0,0-2.972,1.628,22.681,22.681,0,0,0-4.165,5.573,38.5,38.5,0,0,1-3.995,5.945,9.984,9.984,0,0,1-2.84,2.253,16.156,16.156,0,0,1-3.439,1.174c-2.373.524-4.8.745-7.188,1.174s-4.834,1.1-6.563,2.783a8.956,8.956,0,0,0-1.893,3.086,19.319,19.319,0,0,0-.915,3.566c-.442,2.436-.631,4.935-1.262,7.39a13.006,13.006,0,0,1-1.344,3.559,10.154,10.154,0,0,1-2.524,2.859,59.093,59.093,0,0,1-6.431,4.115,29.032,29.032,0,0,0-3.124,2.171,10.1,10.1,0,0,0-2.449,2.853,7.4,7.4,0,0,0-.884,3.635,19.048,19.048,0,0,0,.448,3.787c.53,2.524,1.332,5,1.761,7.573a13.152,13.152,0,0,1,.151,4,10.684,10.684,0,0,1-1.262,3.787c-1.319,2.3-3.036,4.329-4.556,6.475a21.061,21.061,0,0,0-2.032,3.37,7.9,7.9,0,0,0,0,7.523,20.877,20.877,0,0,0,2.032,3.37c1.521,2.146,3.238,4.172,4.556,6.475a10.836,10.836,0,0,1,1.262,3.711,12.95,12.95,0,0,1-.126,3.951c-.423,2.594-1.224,5.08-1.761,7.6a19.4,19.4,0,0,0-.448,3.787,7.4,7.4,0,0,0,.877,3.641,9.977,9.977,0,0,0,2.442,2.859,29.029,29.029,0,0,0,3.124,2.171,63.871,63.871,0,0,1,6.437,4.115,10.255,10.255,0,0,1,2.524,2.859,12.622,12.622,0,0,1,1.344,3.553c.593,2.461.8,4.96,1.262,7.4a19.845,19.845,0,0,0,.921,3.566,8.967,8.967,0,0,0,1.862,3.092c1.748,1.7,4.209,2.373,6.57,2.8s4.815.631,7.188,1.174a16.326,16.326,0,0,1,3.446,1.174,10.1,10.1,0,0,1,2.84,2.253,38.926,38.926,0,0,1,3.957,5.945,22.681,22.681,0,0,0,4.165,5.573,7.453,7.453,0,0,0,2.966,1.628,10.362,10.362,0,0,0,3.421.278,46.591,46.591,0,0,0,6.7-1.407,23.01,23.01,0,0,1,6.734-.959,9.858,9.858,0,0,1,3.288.833,19.735,19.735,0,0,1,2.9,1.679c1.843,1.262,3.534,2.657,5.333,3.881a19.423,19.423,0,0,0,2.8,1.628,12.988,12.988,0,0,0,1.489.581c.259.069.518.12.776.183l.391.082h.391a9.76,9.76,0,0,0,5.964-1.7c1.792-1.067,3.439-2.411,5.118-3.648a20.827,20.827,0,0,1,5.39-3.111,12.4,12.4,0,0,1,6.1-.114c1.988.379,3.906.94,5.825,1.4a19.413,19.413,0,0,0,5.774.675,7.769,7.769,0,0,0,4.973-2.449,25.476,25.476,0,0,0,3.282-4.55c.953-1.59,1.855-3.206,2.9-4.714a11.991,11.991,0,0,1,3.894-3.787,16.125,16.125,0,0,1,5.049-1.59c1.723-.309,3.433-.5,5.106-.776a19.81,19.81,0,0,0,4.828-1.294,7.573,7.573,0,0,0,3.591-3.111,14.351,14.351,0,0,0,1.553-4.456c.631-3.067.8-6.141,1.609-9.012a10.28,10.28,0,0,1,1.975-3.9,15.443,15.443,0,0,1,3.219-2.752c2.3-1.552,4.714-2.739,6.8-4.228A14.407,14.407,0,0,0,295.2,212.5a7.573,7.573,0,0,0,1.565-3.193,10.52,10.52,0,0,0,.095-3.439,26.765,26.765,0,0,0-.593-3.256c-.5-2.1-1.073-4.083-1.426-6.008a12.413,12.413,0,0,1,0-5.5,15.008,15.008,0,0,1,2.171-4.323c1.71-2.468,3.357-4.418,4.418-6.159a12.684,12.684,0,0,0,1.893-4.228,5.825,5.825,0,0,0,.164-1.174l.038-.4v.4a6.132,6.132,0,0,1-.151,1.18,12.539,12.539,0,0,1-1.893,4.26c-1.079,1.754-2.714,3.711-4.418,6.178a14.515,14.515,0,0,0-2.139,4.3,12.166,12.166,0,0,0,0,5.44c.353,1.893.928,3.894,1.439,6a28.215,28.215,0,0,1,.631,3.282,10.805,10.805,0,0,1-.095,3.484,7.75,7.75,0,0,1-1.59,3.269,14.692,14.692,0,0,1-2.834,2.524c-2.108,1.5-4.512,2.695-6.8,4.241a15.455,15.455,0,0,0-3.155,2.72,10.1,10.1,0,0,0-1.931,3.837c-.8,2.84-.978,5.907-1.6,8.993a14.365,14.365,0,0,1-1.571,4.525,7.782,7.782,0,0,1-3.686,3.206,19.969,19.969,0,0,1-4.878,1.313c-1.679.278-3.4.473-5.106.783a16.054,16.054,0,0,0-4.986,1.571,11.732,11.732,0,0,0-3.787,3.692c-1.035,1.5-1.937,3.1-2.9,4.708a25.5,25.5,0,0,1-3.307,4.594,7.99,7.99,0,0,1-5.137,2.524,19.2,19.2,0,0,1-5.857-.675c-1.925-.461-3.843-1.016-5.812-1.388a12.155,12.155,0,0,0-5.964.107,20.612,20.612,0,0,0-5.307,3.073c-1.672,1.231-3.32,2.556-5.137,3.667-.473.252-.921.549-1.414.757-.246.114-.486.233-.732.334l-.764.271a7.649,7.649,0,0,1-3.225.379l-.41-.032a2.413,2.413,0,0,1-.4-.082c-.265-.063-.536-.114-.8-.189a11.849,11.849,0,0,1-1.534-.593,19.9,19.9,0,0,1-2.84-1.647c-1.811-1.262-3.509-2.638-5.333-3.881a20.145,20.145,0,0,0-2.859-1.653,9.593,9.593,0,0,0-3.187-.8,22.935,22.935,0,0,0-6.645.953,45.7,45.7,0,0,1-6.772,1.445,10.727,10.727,0,0,1-3.5-.234,7.775,7.775,0,0,1-3.092-1.691,22.883,22.883,0,0,1-4.228-5.648,38.138,38.138,0,0,0-3.925-5.894,9.586,9.586,0,0,0-2.752-2.177,15.5,15.5,0,0,0-3.37-1.149c-2.348-.518-4.765-.738-7.176-1.174a20.2,20.2,0,0,1-3.566-.934,9.182,9.182,0,0,1-3.155-1.956,9.056,9.056,0,0,1-1.937-3.2,19.981,19.981,0,0,1-.94-3.622c-.442-2.455-.631-4.954-1.262-7.377a12.432,12.432,0,0,0-1.313-3.465,9.9,9.9,0,0,0-2.461-2.771,59.859,59.859,0,0,0-6.393-4.089,29.507,29.507,0,0,1-3.155-2.2,10.356,10.356,0,0,1-2.524-2.96,7.68,7.68,0,0,1-.909-3.787,18.63,18.63,0,0,1,.454-3.881c.536-2.524,1.338-5.049,1.754-7.573a12.565,12.565,0,0,0,.12-3.856,10.343,10.343,0,0,0-1.262-3.622,73.124,73.124,0,0,0-4.538-6.45,22.09,22.09,0,0,1-2.089-3.433,8.267,8.267,0,0,1,0-7.8,21.54,21.54,0,0,1,2.07-3.421c1.534-2.165,3.244-4.178,4.531-6.443a10.407,10.407,0,0,0,1.262-3.629,13.184,13.184,0,0,0-.126-3.856c-.423-2.524-1.224-5.049-1.761-7.573a19,19,0,0,1-.448-3.875,7.687,7.687,0,0,1,.915-3.787,10.539,10.539,0,0,1,2.524-2.954,28.622,28.622,0,0,1,3.155-2.2,62.893,62.893,0,0,0,6.393-4.089,9.876,9.876,0,0,0,2.455-2.77,12.533,12.533,0,0,0,1.306-3.471c.587-2.423.789-4.916,1.262-7.371a19.962,19.962,0,0,1,.934-3.622,7.926,7.926,0,0,1,5.112-5.15,20.2,20.2,0,0,1,3.566-.934c2.411-.435,4.828-.631,7.176-1.168a16.453,16.453,0,0,0,3.37-1.149,9.694,9.694,0,0,0,2.745-2.184,38.137,38.137,0,0,0,3.925-5.894,22.6,22.6,0,0,1,4.235-5.642,7.725,7.725,0,0,1,3.118-1.71,10.88,10.88,0,0,1,3.5-.234,46.525,46.525,0,0,1,6.734,1.414,22.719,22.719,0,0,0,6.645.959,9.567,9.567,0,0,0,3.155-.808,18.692,18.692,0,0,0,2.859-1.653c1.83-1.262,3.528-2.644,5.339-3.875a19.323,19.323,0,0,1,2.84-1.647,13.215,13.215,0,0,1,1.527-.6c.265-.076.536-.12.8-.183l.4-.088h.41a7.75,7.75,0,0,1,3.225.379l.764.271c.246.1.486.221.732.334.5.215.947.5,1.414.757,1.824,1.111,3.465,2.436,5.143,3.667a20.656,20.656,0,0,0,5.3,3.073,12.079,12.079,0,0,0,5.964.107c1.969-.366,3.888-.921,5.812-1.382a19.406,19.406,0,0,1,5.857-.682A8.015,8.015,0,0,1,248.7,90.39a25.668,25.668,0,0,1,3.313,4.6c.959,1.6,1.855,3.212,2.89,4.7a11.694,11.694,0,0,0,3.787,3.7,15.891,15.891,0,0,0,4.986,1.571c1.71.309,3.427.5,5.106.783a20.253,20.253,0,0,1,4.878,1.313,7.819,7.819,0,0,1,3.692,3.2,14.513,14.513,0,0,1,1.571,4.525c.631,3.086.8,6.153,1.59,8.993a10.243,10.243,0,0,0,1.931,3.837,15.3,15.3,0,0,0,3.155,2.726c2.291,1.546,4.7,2.739,6.8,4.241a14.69,14.69,0,0,1,2.834,2.524,7.775,7.775,0,0,1,1.6,3.263,10.837,10.837,0,0,1,.095,3.49,27.862,27.862,0,0,1-.631,3.275c-.5,2.108-1.085,4.083-1.439,6a12.168,12.168,0,0,0,0,5.44,14.517,14.517,0,0,0,2.139,4.3c1.7,2.474,3.332,4.418,4.418,6.178a12.623,12.623,0,0,1,1.893,4.26,6.135,6.135,0,0,1,.151,1.18A1.287,1.287,0,0,1,303.538,174.855Z" transform="translate(-116.451 -70.243)" fill="#263238"/>
      <path id="Path_127" data-name="Path 127" d="M230.731,367c.088,0-2.24,9.466-5.2,21.091s-5.434,21.034-5.522,21.015,2.24-9.466,5.2-21.1S230.668,366.949,230.731,367Z" transform="translate(-154.653 -175.637)" fill="#263238"/>
      <circle id="Ellipse_80" data-name="Ellipse 80" cx="57.291" cy="57.291" r="57.291" transform="translate(36.344 47.322)" fill="#fff"/>
      <path id="Path_128" data-name="Path 128" d="M205.631,185.471c-.789.789-5.131,8.69-5.528,15.209s.543,43.11.543,43.11l.17,2.43c10.312,12.06,47.8,30.008,81.562-.063h0l1.893-22.511L278.7,175.992l-19.375-4.74-4.538-7.352-30.242,7.081-2.7,6.374Z" transform="translate(-147.274 -100.712)" fill="#455a64"/>
      <path id="Path_129" data-name="Path 129" d="M281.094,112.791a89.184,89.184,0,0,0,3.1-15.045A31.075,31.075,0,0,0,282.2,82.657c-.309-.713-2.865-5.478-3.635-5.358-.549.082,1.1,4.563.852,5.049-2.43,4.714-2.871,10.249-2.171,15.506a69.168,69.168,0,0,0,3.85,14.932" transform="translate(-175.657 -68.764)" fill="#263238"/>
      <path id="Path_130" data-name="Path 130" d="M257.855,89.182c-.24-12.855-7.927-23.426-20.769-22.827l-1.186.126A22.991,22.991,0,0,0,215.326,89.9c.278,11.139.719,23.445,1.42,29.365,1.445,12.25,13.884,12.868,13.884,12.868l.574,8.059,5.27,5.724,24.43-15.146Z" transform="translate(-152.924 -64.719)" fill="#ffbf9d"/>
      <path id="Path_131" data-name="Path 131" d="M239.63,167.006A29.777,29.777,0,0,0,255.1,160.6a15.275,15.275,0,0,1-14.932,11.3Z" transform="translate(-161.892 -99.495)" fill="#ff9a6c"/>
      <path id="Path_132" data-name="Path 132" d="M226.519,118.474a1.761,1.761,0,0,0,1.893,1.59,1.685,1.685,0,0,0,1.641-1.767,1.767,1.767,0,0,0-1.893-1.59,1.679,1.679,0,0,0-1.641,1.767Z" transform="translate(-157.055 -83.301)" fill="#263238"/>
      <path id="Path_133" data-name="Path 133" d="M220.317,110c.24.2,1.464-.915,3.351-1.111s3.364.631,3.547.347c.088-.107-.177-.5-.827-.877a4.853,4.853,0,0,0-2.865-.562,4.67,4.67,0,0,0-2.638,1.168C220.349,109.481,220.2,109.91,220.317,110Z" transform="translate(-154.754 -80.006)" fill="#263238"/>
      <path id="Path_134" data-name="Path 134" d="M252.909,116.23a1.761,1.761,0,0,0,1.893,1.59,1.685,1.685,0,0,0,1.641-1.767,1.767,1.767,0,0,0-1.893-1.6,1.691,1.691,0,0,0-1.641,1.773Z" transform="translate(-166.79 -82.471)" fill="#263238"/>
      <path id="Path_135" data-name="Path 135" d="M249.709,108.128c.24.208,1.47-.915,3.351-1.111s3.37.631,3.547.353c.088-.114-.17-.5-.82-.877a4.834,4.834,0,0,0-2.871-.562,4.607,4.607,0,0,0-2.638,1.168C249.747,107.6,249.6,108.039,249.709,108.128Z" transform="translate(-165.598 -79.316)" fill="#263238"/>
      <path id="Path_136" data-name="Path 136" d="M238.543,124.3a12.5,12.5,0,0,0-3.118-.234c-.486,0-.953-.044-1.067-.366a2.424,2.424,0,0,1,.17-1.458l1.035-3.787c1.426-5.427,2.4-9.87,2.19-9.927s-1.559,4.3-2.985,9.731l-.972,3.818a2.783,2.783,0,0,0-.051,1.893,1.212,1.212,0,0,0,.865.631,3.4,3.4,0,0,0,.827,0A12.07,12.07,0,0,0,238.543,124.3Z" transform="translate(-159.67 -80.286)" fill="#263238"/>
      <path id="Path_137" data-name="Path 137" d="M247.238,134.659c-.309,0-.095,2.057-1.691,3.7s-3.787,1.641-3.787,1.931c0,.126.524.347,1.452.271a5.106,5.106,0,0,0,3.155-1.5,4.449,4.449,0,0,0,1.262-3.086C247.661,135.114,247.377,134.634,247.238,134.659Z" transform="translate(-162.678 -89.925)" fill="#263238"/>
      <path id="Path_138" data-name="Path 138" d="M248.609,96.227c.24.492,2.1.05,4.336.088s4.1.448,4.336-.044c.107-.234-.252-.682-1.029-1.1a7.573,7.573,0,0,0-6.608,0C248.849,95.545,248.5,95.993,248.609,96.227Z" transform="translate(-165.198 -75.076)" fill="#263238"/>
      <path id="Path_139" data-name="Path 139" d="M220.489,99.89c.372.391,1.628-.189,3.187-.379s2.916,0,3.155-.492c.114-.234-.139-.631-.757-.984a4.657,4.657,0,0,0-5.131.7C220.451,99.233,220.318,99.694,220.489,99.89Z" transform="translate(-154.805 -76.24)" fill="#263238"/>
      <path id="Path_140" data-name="Path 140" d="M282.65,116.691c.2-.114,8.166-3.383,8.785,5.049s-7.933,7.283-7.99,7.043S282.65,116.691,282.65,116.691Z" transform="translate(-177.763 -83.032)" fill="#ffbf9d"/>
      <path id="Path_141" data-name="Path 141" d="M287.607,126.957c.038,0,.151.088.41.183a1.464,1.464,0,0,0,1.1-.057c.865-.391,1.508-1.855,1.439-3.376a4.815,4.815,0,0,0-.562-2.07,1.7,1.7,0,0,0-1.186-1.041.738.738,0,0,0-.833.461c-.1.246-.032.41-.076.429s-.189-.133-.151-.48a.953.953,0,0,1,.3-.555,1.111,1.111,0,0,1,.8-.271,2.038,2.038,0,0,1,1.622,1.193,4.935,4.935,0,0,1,.682,2.31c.069,1.7-.682,3.351-1.893,3.787a1.571,1.571,0,0,1-1.357-.12C287.638,127.159,287.582,126.969,287.607,126.957Z" transform="translate(-179.589 -84.583)" fill="#ff9a6c"/>
      <path id="Path_142" data-name="Path 142" d="M222.364,74.646c-1.407-.669,2.4-5.345,5.68-7.081,4.916-2.619,12.552-4.531,17.3-3.509,5.724,1.262,10.571,3.723,13.72,8.659a33.237,33.237,0,0,1,4.809,16.673,10.044,10.044,0,0,1-.858,5.219c-1.054,1.937-3.238,3.256-2.972,5.819a3.5,3.5,0,0,1-.707,2.625c-1.439,1.742-3.421.322-4.386-1.168-2.064-3.155-2.524-7.1-2.928-10.874a25.084,25.084,0,0,1,0-8.04c.316-1.433.9-2.8,1.136-4.247a4.151,4.151,0,0,0-1.6-4.8,8.791,8.791,0,0,0-8.835-1.1c-4.639,1.982-12.571,5.011-14.793,3.534-3.187-2.12-4.02-3.61-4.02-3.61Z" transform="translate(-155.412 -63.776)" fill="#263238"/>
      <path id="Path_143" data-name="Path 143" d="M199.055,198.08c-.486.675-7.384,2.966-10,7.327s-5.207,23.937-5.207,23.937l-1.666,12.862c3.282,5.188,7.687,12.06,12.357,16.907Z" transform="translate(-140.699 -113.322)" fill="#455a64"/>
      <g id="Group_157" data-name="Group 157" transform="translate(110.188 103.641)" opacity="0.3">
        <path id="Path_144" data-name="Path 144" d="M291.05,228a33.3,33.3,0,0,0,1.489,7.769,11.185,11.185,0,0,0,4.8,6.1,13.435,13.435,0,0,1,2.871,1.641c.814.757,1.306,1.982,2.1,2.871a8.267,8.267,0,0,0,3.54,2.076,31.233,31.233,0,0,0,11.751,1.893c.126-1.351.133-6.311.259-7.668Z" transform="translate(-291.05 -228)"/>
      </g>
      <path id="Path_145" data-name="Path 145" d="M318.705,183.06s8.7,2.575,11.246,6.279,7.062,18.068,7.99,20.731.114,8.835-1.622,13.253-4.752,8.261-9.959,8.835-13.436-2.43-15.291-4.418-2.619-6.387-2.619-6.387a48.813,48.813,0,0,0,6.822-1.71" transform="translate(-187.281 -107.781)" fill="#455a64"/>
      <path id="Path_146" data-name="Path 146" d="M315.228,219.674l-.107.044-.328.12c-.29.1-.726.246-1.3.417a47.222,47.222,0,0,1-5.049,1.212l.069-.095a20.825,20.825,0,0,0,.89,3.187,12.622,12.622,0,0,0,.751,1.71,6.014,6.014,0,0,0,1.168,1.584,8.47,8.47,0,0,0,1.754,1.161,21.077,21.077,0,0,0,2.051.94,33.009,33.009,0,0,0,4.62,1.464,23.067,23.067,0,0,0,5.188.663,12.4,12.4,0,0,0,1.363-.063,11.324,11.324,0,0,0,1.357-.24,9.4,9.4,0,0,0,2.613-1.016,11.764,11.764,0,0,0,4.146-4.045,21.52,21.52,0,0,0,2.461-5.591,31.735,31.735,0,0,0,1-4.626,22.054,22.054,0,0,0,.227-4.582,8.065,8.065,0,0,0-.448-2.158q-.36-1.06-.7-2.1L335.6,203.6c-.9-2.638-1.78-5.131-2.663-7.447a46.3,46.3,0,0,0-2.8-6.267,7.371,7.371,0,0,0-1.969-2.2,16.493,16.493,0,0,0-2.209-1.483,34.64,34.64,0,0,0-3.856-1.893c-1.085-.448-1.944-.764-2.524-.972l-.663-.234a1.11,1.11,0,0,1-.227-.088,1.1,1.1,0,0,1,.234.057l.675.2c.593.189,1.464.486,2.562.915a34.67,34.67,0,0,1,3.894,1.824,17.039,17.039,0,0,1,2.253,1.483,7.573,7.573,0,0,1,2.032,2.24,45.365,45.365,0,0,1,2.853,6.311c.9,2.31,1.792,4.809,2.695,7.447.448,1.319.9,2.676,1.37,4.058.233.688.467,1.388.7,2.1a8.344,8.344,0,0,1,.473,2.234,22.19,22.19,0,0,1-.221,4.651,32.429,32.429,0,0,1-1.016,4.676,21.632,21.632,0,0,1-2.524,5.68,12.022,12.022,0,0,1-4.266,4.146,9.77,9.77,0,0,1-2.695,1.041,11.993,11.993,0,0,1-1.395.246c-.467,0-.934.082-1.388.063a23.49,23.49,0,0,1-5.257-.694,32.472,32.472,0,0,1-4.657-1.5,21.4,21.4,0,0,1-2.064-.966,8.74,8.74,0,0,1-1.8-1.205,6.236,6.236,0,0,1-1.2-1.66,12.763,12.763,0,0,1-.751-1.735,22.025,22.025,0,0,1-.865-3.238v-.082h.082c2.221-.385,3.925-.82,5.08-1.136l1.313-.372.335-.095C315.19,219.674,315.228,219.668,315.228,219.674Z" transform="translate(-187.236 -107.766)" fill="#263238"/>
      <path id="Path_147" data-name="Path 147" d="M336.534,226.994c-.063,0-.265-1.073-.991-2.676a18.566,18.566,0,0,0-3.925-5.573,13.165,13.165,0,0,0-3.054-2.171l-.764-.341c-.252-.114-.518-.164-.757-.246a7.15,7.15,0,0,0-1.395-.29l-.316-.044h-.858a4.416,4.416,0,0,0-.884.076,4.212,4.212,0,0,1-.77.082,3.23,3.23,0,0,1,.745-.208,3.5,3.5,0,0,1,.9-.133h.877l.328.038a7.106,7.106,0,0,1,1.445.252,7.891,7.891,0,0,1,.783.24l.8.341a12.716,12.716,0,0,1,3.155,2.209,17.165,17.165,0,0,1,3.906,5.718,10.183,10.183,0,0,1,.417,1.123,7.625,7.625,0,0,1,.24.877A3.856,3.856,0,0,1,336.534,226.994Z" transform="translate(-192.582 -119.737)" fill="#263238"/>
      <path id="Path_148" data-name="Path 148" d="M342.2,216.852a16.664,16.664,0,0,0-1.313-2.644,10.343,10.343,0,0,0-5.541-4.2,17.9,17.9,0,0,0-7.075-.391l-2.165.259a4.366,4.366,0,0,1-.8.069,3.2,3.2,0,0,1,.776-.2c.5-.1,1.262-.233,2.158-.36a16.869,16.869,0,0,1,7.194.3,9.9,9.9,0,0,1,3.509,1.893,10.193,10.193,0,0,1,2.133,2.512,8.887,8.887,0,0,1,.928,1.988A3.411,3.411,0,0,1,342.2,216.852Z" transform="translate(-193.5 -117.402)" fill="#263238"/>
      <path id="Path_149" data-name="Path 149" d="M335.667,206.063a19.242,19.242,0,0,0-10.287.4,4.885,4.885,0,0,1,1.42-.631,14.578,14.578,0,0,1,3.679-.631,14.748,14.748,0,0,1,3.717.341A5.231,5.231,0,0,1,335.667,206.063Z" transform="translate(-193.526 -115.947)" fill="#263238"/>
      <path id="Path_150" data-name="Path 150" d="M319.045,186.5c.05,0-.076.89-.177,2.316a34.708,34.708,0,0,0,.934,10.88l-.227.076c-.259-.726-.461-1.319-.593-1.736a2.916,2.916,0,0,1-.177-.631,2.638,2.638,0,0,1,.3.631c.17.4.4.978.694,1.7l-.227.069a28.532,28.532,0,0,1-.991-5.345,29.033,29.033,0,0,1,.05-5.623c.082-.713.177-1.262.252-1.685a2.341,2.341,0,0,1,.158-.65Z" transform="translate(-190.978 -109.05)" fill="#263238"/>
      <path id="Path_151" data-name="Path 151" d="M294.681,160.85s-4.512,0-5.08,5.421a74.814,74.814,0,0,0,0,10.034c0,1.83-.8,8.311-.8,8.311s-3.08,2.733-3.029,6.014a4.621,4.621,0,0,0,2.4,4.3,5.572,5.572,0,0,0,1.3,6s-1.306,3.023-.233,5.049a4.853,4.853,0,0,0,2.714,2.1,3.073,3.073,0,0,0,1.893,4.235,13.3,13.3,0,0,0,4.689.574l3.37-.063,2.966,1.641s5.087-2.215,5.213-5.213l.133-3a56.608,56.608,0,0,1-1.578-6.5c-.12-1.578,1.174-5.345.391-7.037s-3.515-2.688-3.256-5.049a5.639,5.639,0,0,0-1.433-4.979c-1.174-1.306-6.355-3.906-6.355-3.906a24.559,24.559,0,0,1-1.332-6.38C296.65,169.812,299.243,161.841,294.681,160.85Z" transform="translate(-178.913 -99.587)" fill="#ffbf9d"/>
      <path id="Path_152" data-name="Path 152" d="M299.486,190.83a6.443,6.443,0,0,1-1.262.808c-.8.467-1.893,1.085-3.155,1.754s-2.36,1.262-3.155,1.672a6.834,6.834,0,0,1-1.363.631,6.26,6.26,0,0,1,1.262-.814c.8-.467,1.893-1.085,3.155-1.754s2.36-1.262,3.155-1.672A6.539,6.539,0,0,1,299.486,190.83Z" transform="translate(-180.677 -110.647)" fill="#ff9a6c"/>
      <path id="Path_153" data-name="Path 153" d="M302.2,207a2.95,2.95,0,0,1-.4.353,13.8,13.8,0,0,1-1.174.827,23.1,23.1,0,0,1-4.228,2.133,23.566,23.566,0,0,1-4.575,1.262c-.631.095-1.092.151-1.426.17a1.439,1.439,0,0,1-.53,0c0-.05.732-.151,1.893-.4a30.572,30.572,0,0,0,4.5-1.313A29.786,29.786,0,0,0,300.491,208,19.428,19.428,0,0,1,302.2,207Z" transform="translate(-180.426 -116.612)" fill="#ff9a6c"/>
      <path id="Path_154" data-name="Path 154" d="M314.513,201.849c.082.032-.088.631-.631,1.092s-1.123.6-1.142.517.448-.322.921-.764S314.425,201.811,314.513,201.849Z" transform="translate(-188.863 -114.711)" fill="#ff9a6c"/>
      <path id="Path_155" data-name="Path 155" d="M304.724,221.15a10.027,10.027,0,0,1-1.893.694,37.37,37.37,0,0,1-4.733,1.079,35.821,35.821,0,0,1-4.834.454,9.317,9.317,0,0,1-2.013-.063,16.878,16.878,0,0,1,2-.164c1.262-.088,2.935-.252,4.8-.549s3.521-.682,4.721-.984A17.235,17.235,0,0,1,304.724,221.15Z" transform="translate(-180.935 -121.832)" fill="#ff9a6c"/>
      <path id="Path_156" data-name="Path 156" d="M318.686,216.21a8.358,8.358,0,0,1,.347-.966,5.73,5.73,0,0,0,.246-2.392,5.553,5.553,0,0,0-.808-2.266,8.4,8.4,0,0,1-.562-.858,2.28,2.28,0,0,1,.757.726,4.967,4.967,0,0,1,.581,4.872A2.579,2.579,0,0,1,318.686,216.21Z" transform="translate(-190.77 -117.618)" fill="#ff9a6c"/>
      <path id="Path_157" data-name="Path 157" d="M306.489,235.612a6.816,6.816,0,0,1-1.6.379,25.315,25.315,0,0,1-3.963.309,24.234,24.234,0,0,1-3.97-.334,6.7,6.7,0,0,1-1.6-.385,10.453,10.453,0,0,1,1.635.158,37,37,0,0,0,3.938.233,37.54,37.54,0,0,0,3.932-.215,10.278,10.278,0,0,1,1.635-.145Z" transform="translate(-182.448 -127.156)" fill="#ff9a6c"/>
      <path id="Path_158" data-name="Path 158" d="M297.63,178.946a1.316,1.316,0,0,1-.631.36,3.97,3.97,0,0,1-3.37-.4c-.379-.246-.555-.461-.53-.492a8.337,8.337,0,0,0,2.209.745,8.2,8.2,0,0,0,2.322-.208Z" transform="translate(-181.617 -106.065)" fill="#ff9a6c"/>
      <path id="Path_159" data-name="Path 159" d="M319.613,220.57a1.263,1.263,0,0,1,.076.486,5.683,5.683,0,0,1-.158,1.332c-.12.549-.328,1.186-.53,1.893a5.34,5.34,0,0,0-.234,2.3c.107.8.707,1.445.8,2.259a2.985,2.985,0,0,1-.5,1.95,6.675,6.675,0,0,1-.814,1.06c-.215.233-.347.347-.366.334s.435-.555.978-1.508a2.853,2.853,0,0,0,.4-1.792c-.076-.688-.682-1.332-.827-2.247a5.44,5.44,0,0,1,.271-2.436c.221-.713.448-1.338.593-1.893A11.994,11.994,0,0,0,319.613,220.57Z" transform="translate(-190.763 -121.618)" fill="#ff9a6c"/>
      <path id="Path_160" data-name="Path 160" d="M320.03,226.85a1.975,1.975,0,0,1,.215.593c.114.385.265.953.4,1.66a15.2,15.2,0,0,1,.3,2.524,6.816,6.816,0,0,1-.568,3.092,8.911,8.911,0,0,1-1.944,2.468,17.416,17.416,0,0,1-2,1.571c-.6.41-1.1.713-1.458.909a2.316,2.316,0,0,1-.562.278c-.032-.044.726-.524,1.893-1.376a19.686,19.686,0,0,0,1.931-1.6,8.929,8.929,0,0,0,1.855-2.392,6.8,6.8,0,0,0,.562-2.947,17.1,17.1,0,0,0-.227-2.493C320.188,227.727,319.979,226.863,320.03,226.85Z" transform="translate(-189.482 -123.935)" fill="#263238"/>
      <path id="Path_161" data-name="Path 161" d="M241.5,190.59a4.3,4.3,0,0,1-.732-.543l-1.893-1.584-1.313-1.1a3.591,3.591,0,0,0-.745-.536.928.928,0,0,0-.846,0c-.543.284-.909.978-1.369,1.559s-.915,1.262-1.395,1.893c-.757,1.022-1.5,2-2.171,2.909l-.41.543.133-.669a32.669,32.669,0,0,1,1.571-5.5c.252-.631.48-1.174.631-1.521a2.246,2.246,0,0,1,.284-.524,3.156,3.156,0,0,1-.183.562c-.133.36-.328.884-.555,1.552a38.33,38.33,0,0,0-1.445,5.5l-.284-.126,2.165-2.916,1.395-1.893.669-.89a2.354,2.354,0,0,1,.833-.757,1.262,1.262,0,0,1,1.1.044,3.888,3.888,0,0,1,.789.587L239,188.306l1.843,1.66a5.77,5.77,0,0,1,.663.625Z" transform="translate(-158.572 -108.685)" fill="#263238"/>
      <path id="Path_162" data-name="Path 162" d="M275.438,185.109a1.42,1.42,0,0,1-.246.221l-.745.581L271.664,188l-9.283,6.835-.139.1-.095-.145c-.076-.114-.151-.24-.233-.36l-4.657-7.359.17.057a34.238,34.238,0,0,0-5.175,2.581c-.593.36-1.054.631-1.369.865a2.783,2.783,0,0,1-.492.3,2.758,2.758,0,0,1,.442-.372c.3-.221.751-.543,1.338-.928a31,31,0,0,1,5.15-2.7l.107-.044.063.095c1.369,2.127,2.979,4.645,4.7,7.333.082.12.158.246.234.36l-.24-.044,9.346-6.753,2.84-2.013.783-.53C275.337,185.153,275.432,185.1,275.438,185.109Z" transform="translate(-165.862 -108.536)" fill="#263238"/>
      <path id="Path_163" data-name="Path 163" d="M200.315,224.88a2.018,2.018,0,0,1,.038.442c0,.328,0,.751.032,1.262,0,1.142.057,2.739.088,4.7.076,3.963.234,9.466.442,15.493s.328,11.53.341,15.5v4.7c0,.524,0,.953-.032,1.262a1.943,1.943,0,0,1-.032.448,3.655,3.655,0,0,1,0-.448c0-.322,0-.751-.038-1.262,0-1.149-.05-2.745-.088-4.7-.069-3.97-.234-9.466-.435-15.5s-.328-11.53-.341-15.5v-5.958a3.447,3.447,0,0,1,.025-.442Z" transform="translate(-147.38 -123.208)" fill="#263238"/>
      <path id="Path_164" data-name="Path 164" d="M247.347,273.687a.632.632,0,0,1-.038-.177,2.007,2.007,0,0,0-.057-.536c-.05-.5-.12-1.186-.2-2.064-.177-1.792-.379-4.418-.581-7.6s-.372-7.049-.48-11.3-.12-8.943,0-13.884.341-9.593.631-13.84.631-8.072.972-11.271.631-5.793.909-7.573c.126-.877.221-1.559.29-2.051.038-.221.063-.4.088-.536a.092.092,0,1,1,.038.006c0,.139-.032.316-.05.536-.057.492-.133,1.18-.234,2.057-.215,1.792-.492,4.38-.8,7.573s-.631,7.024-.9,11.271-.48,8.924-.593,13.834-.082,9.586,0,13.84.24,8.078.417,11.29.334,5.819.473,7.611c.057.877.107,1.571.139,2.07a2.625,2.625,0,0,0,.032.536A1.345,1.345,0,0,1,247.347,273.687Z" transform="translate(-164.207 -115.015)" fill="#263238"/>
      <path id="Path_165" data-name="Path 165" d="M201.965,148.558,201.3,149l-1.969,1.262c-.871.562-1.893,1.363-3.092,2.247-.631.454-1.212,1-1.893,1.559l-1.029.865c-.353.3-.688.631-1.048.978a56.8,56.8,0,0,0-9.126,10.962l-1.123,1.8c-.4.6-.7,1.262-1.067,1.893s-.726,1.313-1.054,2.007-.631,1.407-.972,2.127c-.158.36-.334.713-.486,1.085s-.284.751-.429,1.136c-.284.757-.587,1.521-.865,2.31-.467,1.6-1.06,3.212-1.414,4.935a57.9,57.9,0,0,0-.884,22.764,57.139,57.139,0,0,0,91.117,36.231,60.371,60.371,0,0,0,5.642-4.923l1.262-1.338c.429-.442.846-.89,1.262-1.363l1.2-1.382c.379-.48.751-.959,1.13-1.433a56.64,56.64,0,0,0,11.088-25.174,58.345,58.345,0,0,0,.751-6.437c.063-1.067.063-2.12.1-3.155s-.076-2.089-.114-3.118c0-.511-.044-1.029-.063-1.54s-.114-1.01-.164-1.515c-.126-1-.246-2-.366-2.985s-.379-1.944-.568-2.9a26.171,26.171,0,0,0-.631-2.821l-.783-2.733a11.584,11.584,0,0,0-.448-1.319c-.164-.435-.328-.871-.486-1.3-.334-.852-.631-1.723-.991-2.524s-.751-1.616-1.123-2.4a56.634,56.634,0,0,0-10.893-15.4,59.5,59.5,0,0,0-11.246-8.766l-2.411-1.382a11.9,11.9,0,0,0-1.123-.581l-1.06-.5-1.893-.9a13.9,13.9,0,0,0-1.6-.631l-2.2-.846-.745-.3.757.271,2.2.82c.48.189,1.041.353,1.616.631l1.893.884,1.067.5a11.812,11.812,0,0,1,1.13.568l2.417,1.376a58.881,58.881,0,0,1,11.315,8.747,56.691,56.691,0,0,1,10.968,15.4c.372.8.751,1.6,1.136,2.423s.631,1.685,1,2.524l.492,1.3a11.689,11.689,0,0,1,.448,1.325c.265.909.53,1.818.8,2.745a26.06,26.06,0,0,1,.663,2.834c.189.959.417,1.893.581,2.909s.24,1.994.366,3c.057.5.139,1.01.17,1.521s.044,1.029.063,1.546c.038,1.035.095,2.076.12,3.155s-.032,2.114-.1,3.155A57.007,57.007,0,0,1,276.7,232.916l-1.149,1.439-1.212,1.395a18.324,18.324,0,0,1-1.262,1.369l-1.262,1.351a60.106,60.106,0,0,1-5.68,4.948,57.429,57.429,0,0,1-91.559-36.389,55.48,55.48,0,0,1-.631-11.947,54.761,54.761,0,0,1,1.584-10.918c.353-1.729.953-3.345,1.42-4.954.284-.783.593-1.552.884-2.316.145-.379.29-.757.429-1.136s.334-.726.492-1.092c.334-.719.631-1.426.978-2.127s.719-1.351,1.067-2.013.675-1.319,1.073-1.925l1.136-1.8a55.782,55.782,0,0,1,9.2-10.949c.36-.334.694-.675,1.048-.978l1.035-.865c.682-.549,1.262-1.092,1.893-1.546,1.231-.884,2.24-1.672,3.118-2.228l1.988-1.262C201.719,148.69,201.965,148.558,201.965,148.558Z" transform="translate(-137.632 -93.183)" fill="#263238"/>
    </g>
  </g>
</svg>
